<svg xmlns="http://www.w3.org/2000/svg" viewBox="0 0 512 512" width="512" height="512">
  <rect width="512" height="512" rx="80" fill="#0a0a14"/>
  <!-- Graduation cap base -->
  <polygon points="256,108 400,172 256,236 112,172" fill="#1a73e8"/>
  <!-- Cap top board -->
  <rect x="186" y="95" width="140" height="24" rx="6" fill="#4da3ff" transform="rotate(-2, 256, 107)"/>
  <!-- Left side of cap -->
  <polygon points="112,172 112,230 152,248 152,190" fill="#1558b0"/>
  <!-- Right side of cap -->
  <polygon points="400,172 400,230 360,248 360,190" fill="#1558b0"/>
  <!-- Diploma scroll -->
  <rect x="186" y="265" width="140" height="90" rx="10" fill="#1a2744" stroke="#1a73e8" stroke-width="2"/>
  <rect x="196" y="278" width="120" height="8" rx="3" fill="#4da3ff" opacity="0.6"/>
  <rect x="196" y="294" width="100" height="5" rx="2" fill="#4da3ff" opacity="0.4"/>
  <rect x="196" y="306" width="80" height="5" rx="2" fill="#4da3ff" opacity="0.3"/>
  <rect x="196" y="318" width="60" height="5" rx="2" fill="#4da3ff" opacity="0.2"/>
  <!-- Tassel string -->
  <line x1="400" y1="172" x2="400" y2="278" stroke="#4da3ff" stroke-width="5"/>
  <circle cx="400" cy="293" r="16" fill="#4da3ff"/>
  <!-- Tech circuit decoration -->
  <circle cx="150" cy="360" r="10" fill="#1a73e8" opacity="0.7"/>
  <circle cx="256" cy="385" r="10" fill="#4da3ff" opacity="0.7"/>
  <circle cx="362" cy="360" r="10" fill="#1a73e8" opacity="0.7"/>
  <line x1="150" y1="360" x2="256" y2="385" stroke="#1a73e8" stroke-width="3" opacity="0.5"/>
  <line x1="256" y1="385" x2="362" y2="360" stroke="#1a73e8" stroke-width="3" opacity="0.5"/>
  <circle cx="150" cy="360" r="4" fill="#4da3ff"/>
  <circle cx="362" cy="360" r="4" fill="#4da3ff"/>
  <!-- Star sparkle -->
  <polygon points="256,50 262,68 280,68 266,79 271,97 256,87 241,97 246,79 232,68 250,68" fill="#4da3ff" opacity="0.4"/>
  <!-- IFH text -->
  <text x="256" y="465" font-family="system-ui, sans-serif" font-size="56" font-weight="700" fill="#e8f0fe" text-anchor="middle" letter-spacing="8">IFH</text>
</svg>
